# xmcd
#
# Track frame offsets: 
#        150
#        13105
#        27288
#        42130
#        52555
#        66338
#        79478
#        93768
#        109348
#        119365
#
# Disc length: 1757 seconds
#
# Revision: 3
# Processed by: cddbd v1.5.2PL0 Copyright (c) Steve Scherf et al.
# Submitted via: ExactAudioCopy v1.3
#
DISCID=7906db0a
DTITLE=Various Artist - Country Range
DYEAR=2003
DGENRE=Country
TTITLE0=Haggard, Merle - Sing Me Back Home
TTITLE1=Greenwood, Lee - Dixie Road
TTITLE2=Greenwood, Lee - God Bless The USA
TTITLE3=Miller, Roger - Engine Engine # 9
TTITLE4=Brown, T. Graham - I Tell It Like It Used To Be
TTITLE5=Cline, Patsy - Life's Railway To Heaven
TTITLE6=Twitty, Conway - You've Never Been This Far Before
TTITLE7=Dunn, Holly - Daddy's Hands
TTITLE8=Vincent, Gene - Lonely Street
TTITLE9=Stewart, Wynne - Wishful Thinking
EXTD=
EXTT0=
EXTT1=
EXTT2=
EXTT3=
EXTT4=
EXTT5=
EXTT6=
EXTT7=
EXTT8=
EXTT9=
PLAYORDER=
